%TF.GenerationSoftware,KiCad,Pcbnew,8.0.7*%
%TF.CreationDate,2025-11-24T17:01:22-03:00*%
%TF.ProjectId,PP,50502e6b-6963-4616-945f-706362585858,rev?*%
%TF.SameCoordinates,Original*%
%TF.FileFunction,Copper,L2,Bot*%
%TF.FilePolarity,Positive*%
%FSLAX46Y46*%
G04 Gerber Fmt 4.6, Leading zero omitted, Abs format (unit mm)*
G04 Created by KiCad (PCBNEW 8.0.7) date 2025-11-24 17:01:22*
%MOMM*%
%LPD*%
G01*
G04 APERTURE LIST*
%TA.AperFunction,ComponentPad*%
%ADD10C,2.000000*%
%TD*%
%TA.AperFunction,ComponentPad*%
%ADD11R,2.000000X1.905000*%
%TD*%
%TA.AperFunction,ComponentPad*%
%ADD12O,2.000000X1.905000*%
%TD*%
%TA.AperFunction,ComponentPad*%
%ADD13R,3.000000X3.000000*%
%TD*%
%TA.AperFunction,ComponentPad*%
%ADD14C,3.000000*%
%TD*%
%TA.AperFunction,ComponentPad*%
%ADD15R,1.500000X1.500000*%
%TD*%
%TA.AperFunction,ComponentPad*%
%ADD16C,1.500000*%
%TD*%
%TA.AperFunction,ComponentPad*%
%ADD17R,1.600000X1.600000*%
%TD*%
%TA.AperFunction,ComponentPad*%
%ADD18O,1.600000X1.600000*%
%TD*%
%TA.AperFunction,ComponentPad*%
%ADD19R,2.000000X2.000000*%
%TD*%
%TA.AperFunction,ViaPad*%
%ADD20C,2.000000*%
%TD*%
%TA.AperFunction,Conductor*%
%ADD21C,1.200000*%
%TD*%
G04 APERTURE END LIST*
D10*
%TO.P,C2,1*%
%TO.N,XTAL2*%
X51500000Y-90500000D03*
%TO.P,C2,2*%
%TO.N,GND*%
X46500000Y-90500000D03*
%TD*%
%TO.P,R2,1*%
%TO.N,GND*%
X139080000Y-44960000D03*
%TO.P,R2,2*%
%TO.N,Net-(J2-Pin_2)*%
X123840000Y-44960000D03*
%TD*%
%TO.P,R3,1*%
%TO.N,GND*%
X139490000Y-26000000D03*
%TO.P,R3,2*%
%TO.N,Net-(J3-Pin_2)*%
X124250000Y-26000000D03*
%TD*%
D11*
%TO.P,U4,1,VI*%
%TO.N,9V*%
X47555000Y-120960000D03*
D12*
%TO.P,U4,2,GND*%
%TO.N,GND*%
X47555000Y-123500000D03*
%TO.P,U4,3,VO*%
%TO.N,5V*%
X47555000Y-126040000D03*
%TD*%
D13*
%TO.P,J6,1,Pin_1*%
%TO.N,OUPUTA*%
X128500000Y-103540000D03*
D14*
%TO.P,J6,2,Pin_2*%
%TO.N,OUPUTA-*%
X128500000Y-98460000D03*
%TD*%
D10*
%TO.P,Y1,1,1*%
%TO.N,XTAL1*%
X56000000Y-80050000D03*
%TO.P,Y1,2,2*%
%TO.N,XTAL2*%
X56000000Y-84930000D03*
%TD*%
D13*
%TO.P,J8,1,Pin_1*%
%TO.N,9V*%
X47500000Y-99960000D03*
D14*
%TO.P,J8,2,Pin_2*%
%TO.N,GND*%
X47500000Y-105040000D03*
%TD*%
D10*
%TO.P,C1,1*%
%TO.N,XTAL1*%
X51500000Y-74500000D03*
%TO.P,C1,2*%
%TO.N,GND*%
X46500000Y-74500000D03*
%TD*%
%TO.P,C3,1*%
%TO.N,9V*%
X49750000Y-112950000D03*
%TO.P,C3,2*%
%TO.N,GND*%
X46250000Y-112950000D03*
%TD*%
D15*
%TO.P,Q1,1,C*%
%TO.N,Net-(Q1-C)*%
X114490652Y-31290994D03*
D16*
%TO.P,Q1,2,B*%
%TO.N,Net-(Q1-B)*%
X114490652Y-28750994D03*
%TO.P,Q1,3,E*%
%TO.N,GND*%
X114490652Y-26210994D03*
%TD*%
D13*
%TO.P,J3,1,Pin_1*%
%TO.N,LED3*%
X132870000Y-39040000D03*
D14*
%TO.P,J3,2,Pin_2*%
%TO.N,Net-(J3-Pin_2)*%
X132870000Y-33960000D03*
%TD*%
D10*
%TO.P,R5,1*%
%TO.N,Net-(J4-Pin_2)*%
X95500000Y-26130000D03*
%TO.P,R5,2*%
%TO.N,Net-(Q1-C)*%
X95500000Y-41370000D03*
%TD*%
%TO.P,R6,1*%
%TO.N,LDR*%
X77250000Y-39490000D03*
%TO.P,R6,2*%
%TO.N,GND*%
X77250000Y-24250000D03*
%TD*%
%TO.P,U1,1,~{RESET}/PC6*%
%TO.N,unconnected-(U1-~{RESET}{slash}PC6-Pad1)*%
X84880000Y-63140000D03*
%TO.P,U1,2,PD0*%
%TO.N,TX*%
X84880000Y-65680000D03*
%TO.P,U1,3,PD1*%
%TO.N,RX*%
X84880000Y-68220000D03*
%TO.P,U1,4,PD2*%
%TO.N,unconnected-(U1-PD2-Pad4)*%
X84880000Y-70760000D03*
%TO.P,U1,5,PD3*%
%TO.N,unconnected-(U1-PD3-Pad5)*%
X84880000Y-73300000D03*
%TO.P,U1,6,PD4*%
%TO.N,unconnected-(U1-PD4-Pad6)*%
X84880000Y-75840000D03*
%TO.P,U1,7,VCC*%
%TO.N,5V*%
X84880000Y-78380000D03*
%TO.P,U1,8,GND*%
%TO.N,GND*%
X84880000Y-80920000D03*
%TO.P,U1,9,XTAL1/PB6*%
%TO.N,XTAL1*%
X84880000Y-83460000D03*
%TO.P,U1,10,XTAL2/PB7*%
%TO.N,XTAL2*%
X84880000Y-86000000D03*
%TO.P,U1,11,PD5*%
%TO.N,IN4B*%
X84880000Y-88540000D03*
%TO.P,U1,12,PD6*%
%TO.N,SPEEDA*%
X84880000Y-91080000D03*
%TO.P,U1,13,PD7*%
%TO.N,IN2A*%
X84880000Y-93620000D03*
%TO.P,U1,14,PB0*%
%TO.N,IN1A*%
X84880000Y-96160000D03*
%TO.P,U1,15,PB1*%
%TO.N,IN3B*%
X92500000Y-96160000D03*
%TO.P,U1,16,PB2*%
%TO.N,SPEEDB*%
X92500000Y-93620000D03*
%TO.P,U1,17,PB3*%
%TO.N,unconnected-(U1-PB3-Pad17)*%
X92500000Y-91080000D03*
%TO.P,U1,18,PB4*%
%TO.N,unconnected-(U1-PB4-Pad18)*%
X92500000Y-88540000D03*
%TO.P,U1,19,PB5*%
%TO.N,unconnected-(U1-PB5-Pad19)*%
X92500000Y-86000000D03*
%TO.P,U1,20,AVCC*%
%TO.N,5V*%
X92500000Y-83460000D03*
%TO.P,U1,21,AREF*%
X92500000Y-80920000D03*
%TO.P,U1,22,GND*%
%TO.N,GND*%
X92500000Y-78380000D03*
%TO.P,U1,23,PC0*%
%TO.N,LED1*%
X92500000Y-75840000D03*
%TO.P,U1,24,PC1*%
%TO.N,LED2*%
X92500000Y-73300000D03*
%TO.P,U1,25,PC2*%
%TO.N,LED3*%
X92500000Y-70760000D03*
%TO.P,U1,26,PC3*%
%TO.N,LAZER*%
X92500000Y-68220000D03*
%TO.P,U1,27,PC4*%
%TO.N,unconnected-(U1-PC4-Pad27)*%
X92500000Y-65680000D03*
%TO.P,U1,28,PC5*%
%TO.N,LDR*%
X92500000Y-63140000D03*
%TD*%
D17*
%TO.P,U2,1,EN1\u002C2*%
%TO.N,SPEEDA*%
X112800000Y-110000000D03*
D18*
%TO.P,U2,2,1A*%
%TO.N,IN1A*%
X112800000Y-107460000D03*
%TO.P,U2,3,1Y*%
%TO.N,OUPUTA*%
X112800000Y-104920000D03*
%TO.P,U2,4,GND*%
%TO.N,GND*%
X112800000Y-102380000D03*
%TO.P,U2,5,GND*%
X112800000Y-99840000D03*
%TO.P,U2,6,2Y*%
%TO.N,OUPUTA-*%
X112800000Y-97300000D03*
%TO.P,U2,7,2A*%
%TO.N,IN2A*%
X112800000Y-94760000D03*
%TO.P,U2,8,VCC2*%
%TO.N,5V*%
X112800000Y-92220000D03*
%TO.P,U2,9,EN3\u002C4*%
%TO.N,SPEEDB*%
X105180000Y-92220000D03*
%TO.P,U2,10,3A*%
%TO.N,IN3B*%
X105180000Y-94760000D03*
%TO.P,U2,11,3Y*%
%TO.N,OUPUTB*%
X105180000Y-97300000D03*
%TO.P,U2,12,GND*%
%TO.N,GND*%
X105180000Y-99840000D03*
%TO.P,U2,13,GND*%
X105180000Y-102380000D03*
%TO.P,U2,14,4Y*%
%TO.N,OUPUTB-*%
X105180000Y-104920000D03*
%TO.P,U2,15,4A*%
%TO.N,IN4B*%
X105180000Y-107460000D03*
%TO.P,U2,16,VCC1*%
%TO.N,5V*%
X105180000Y-110000000D03*
%TD*%
D13*
%TO.P,J7,1,Pin_1*%
%TO.N,OUPUTB*%
X89000000Y-107000000D03*
D14*
%TO.P,J7,2,Pin_2*%
%TO.N,OUPUTB-*%
X89000000Y-112080000D03*
%TD*%
D10*
%TO.P,R1,1*%
%TO.N,GND*%
X139080000Y-64960000D03*
%TO.P,R1,2*%
%TO.N,Net-(J1-Pin_2)*%
X123840000Y-64960000D03*
%TD*%
D13*
%TO.P,J1,1,Pin_1*%
%TO.N,LED1*%
X133080000Y-75960000D03*
D14*
%TO.P,J1,2,Pin_2*%
%TO.N,Net-(J1-Pin_2)*%
X133080000Y-70880000D03*
%TD*%
D19*
%TO.P,U3,1,EN*%
%TO.N,unconnected-(U3-EN-Pad1)*%
X42800000Y-25290000D03*
D10*
%TO.P,U3,2,SENSOR_VP*%
%TO.N,unconnected-(U3-SENSOR_VP-Pad2)*%
X42800000Y-27830000D03*
%TO.P,U3,3,SENSOR_VN*%
%TO.N,unconnected-(U3-SENSOR_VN-Pad3)*%
X42800000Y-30370000D03*
%TO.P,U3,4,IO34*%
%TO.N,unconnected-(U3-IO34-Pad4)*%
X42800000Y-32910000D03*
%TO.P,U3,5,IO35*%
%TO.N,unconnected-(U3-IO35-Pad5)*%
X42800000Y-35450000D03*
%TO.P,U3,6,IO32*%
%TO.N,unconnected-(U3-IO32-Pad6)*%
X42800000Y-37990000D03*
%TO.P,U3,7,IO33*%
%TO.N,unconnected-(U3-IO33-Pad7)*%
X42800000Y-40530000D03*
%TO.P,U3,8,IO25*%
%TO.N,unconnected-(U3-IO25-Pad8)*%
X42800000Y-43070000D03*
%TO.P,U3,9,IO26*%
%TO.N,unconnected-(U3-IO26-Pad9)*%
X42800000Y-45610000D03*
%TO.P,U3,10,IO27*%
%TO.N,unconnected-(U3-IO27-Pad10)*%
X42800000Y-48150000D03*
%TO.P,U3,11,IO14*%
%TO.N,unconnected-(U3-IO14-Pad11)*%
X42800000Y-50690000D03*
%TO.P,U3,12,IO12*%
%TO.N,unconnected-(U3-IO12-Pad12)*%
X42800000Y-53230000D03*
%TO.P,U3,13,IO13*%
%TO.N,unconnected-(U3-IO13-Pad13)*%
X42800000Y-55770000D03*
%TO.P,U3,14,GND*%
%TO.N,GND*%
X42800000Y-58310000D03*
%TO.P,U3,15,VIN*%
%TO.N,5V*%
X42800000Y-60850000D03*
%TO.P,U3,16,3V3*%
%TO.N,unconnected-(U3-3V3-Pad16)*%
X68200000Y-60850000D03*
%TO.P,U3,17,GND*%
%TO.N,GND*%
X68200000Y-58310000D03*
%TO.P,U3,18,IO15*%
%TO.N,unconnected-(U3-IO15-Pad18)*%
X68200000Y-55770000D03*
%TO.P,U3,19,IO2*%
%TO.N,unconnected-(U3-IO2-Pad19)*%
X68200000Y-53230000D03*
%TO.P,U3,20,IO4*%
%TO.N,unconnected-(U3-IO4-Pad20)*%
X68200000Y-50690000D03*
%TO.P,U3,21,IO16*%
%TO.N,RX*%
X68200000Y-48150000D03*
%TO.P,U3,22,IO17*%
%TO.N,TX*%
X68200000Y-45610000D03*
%TO.P,U3,23,IO5*%
%TO.N,unconnected-(U3-IO5-Pad23)*%
X68200000Y-43070000D03*
%TO.P,U3,24,IO18*%
%TO.N,unconnected-(U3-IO18-Pad24)*%
X68200000Y-40530000D03*
%TO.P,U3,25,IO19*%
%TO.N,unconnected-(U3-IO19-Pad25)*%
X68200000Y-37990000D03*
%TO.P,U3,26,IO21*%
%TO.N,unconnected-(U3-IO21-Pad26)*%
X68200000Y-35450000D03*
%TO.P,U3,27,RXD0/IO3*%
%TO.N,unconnected-(U3-RXD0{slash}IO3-Pad27)*%
X68200000Y-32910000D03*
%TO.P,U3,28,TXD0/IO1*%
%TO.N,unconnected-(U3-TXD0{slash}IO1-Pad28)*%
X68200000Y-30370000D03*
%TO.P,U3,29,IO22*%
%TO.N,unconnected-(U3-IO22-Pad29)*%
X68200000Y-27830000D03*
%TO.P,U3,30,IO23*%
%TO.N,unconnected-(U3-IO23-Pad30)*%
X68200000Y-25290000D03*
%TD*%
D13*
%TO.P,J5,1,Pin_1*%
%TO.N,5V*%
X88790000Y-30870000D03*
D14*
%TO.P,J5,2,Pin_2*%
%TO.N,LDR*%
X83710000Y-30870000D03*
%TD*%
D13*
%TO.P,J2,1,Pin_1*%
%TO.N,LED2*%
X133080000Y-59540000D03*
D14*
%TO.P,J2,2,Pin_2*%
%TO.N,Net-(J2-Pin_2)*%
X133080000Y-54460000D03*
%TD*%
D10*
%TO.P,R4,1*%
%TO.N,Net-(Q1-B)*%
X101159904Y-41844575D03*
%TO.P,R4,2*%
%TO.N,LAZER*%
X116399904Y-41844575D03*
%TD*%
D13*
%TO.P,J4,1,Pin_1*%
%TO.N,5V*%
X107290000Y-31000000D03*
D14*
%TO.P,J4,2,Pin_2*%
%TO.N,Net-(J4-Pin_2)*%
X102210000Y-31000000D03*
%TD*%
D10*
%TO.P,C4,1*%
%TO.N,5V*%
X58500000Y-125750000D03*
%TO.P,C4,2*%
%TO.N,GND*%
X58500000Y-129250000D03*
%TD*%
D20*
%TO.N,SPEEDA*%
X112800000Y-114500000D03*
X100500000Y-114500000D03*
%TO.N,IN2A*%
X80000000Y-89000000D03*
X97000000Y-88098902D03*
%TO.N,IN1A*%
X115000000Y-117000000D03*
X96500000Y-118500000D03*
%TO.N,5V*%
X136652000Y-108204000D03*
X136500000Y-93980000D03*
%TD*%
D21*
%TO.N,OUPUTB*%
X102011792Y-97300000D02*
X92311792Y-107000000D01*
X92311792Y-107000000D02*
X89000000Y-107000000D01*
X105180000Y-97300000D02*
X102011792Y-97300000D01*
%TO.N,IN2A*%
X106777691Y-88098902D02*
X97000000Y-88098902D01*
X108875416Y-90196627D02*
X106777691Y-88098902D01*
X108875416Y-93192590D02*
X108875416Y-90196627D01*
X110442826Y-94760000D02*
X108875416Y-93192590D01*
X112800000Y-94760000D02*
X110442826Y-94760000D01*
%TO.N,GND*%
X144500000Y-96292000D02*
X144500000Y-92500000D01*
X113000000Y-121000000D02*
X119792000Y-121000000D01*
X109000000Y-117000000D02*
X113000000Y-121000000D01*
X109000000Y-104500000D02*
X109000000Y-117000000D01*
X119792000Y-121000000D02*
X144500000Y-96292000D01*
%TO.N,LED1*%
X107543731Y-65073856D02*
X96777587Y-75840000D01*
X128469543Y-75960000D02*
X117583399Y-65073856D01*
X117583399Y-65073856D02*
X107543731Y-65073856D01*
X133080000Y-75960000D02*
X128469543Y-75960000D01*
X96777587Y-75840000D02*
X92500000Y-75840000D01*
%TO.N,LED3*%
X118408114Y-44591886D02*
X123960000Y-39040000D01*
X114495267Y-44591886D02*
X118408114Y-44591886D01*
X108000000Y-51087153D02*
X114495267Y-44591886D01*
X95740000Y-70760000D02*
X108000000Y-58500000D01*
X108000000Y-58500000D02*
X108000000Y-51087153D01*
X92500000Y-70760000D02*
X95740000Y-70760000D01*
X123960000Y-39040000D02*
X132870000Y-39040000D01*
%TO.N,SPEEDA*%
X86580000Y-91080000D02*
X84880000Y-91080000D01*
X88000000Y-92500000D02*
X86580000Y-91080000D01*
X88000000Y-97526256D02*
X88000000Y-92500000D01*
X80000000Y-105526256D02*
X88000000Y-97526256D01*
X83915808Y-119341098D02*
X80000000Y-115425290D01*
X80000000Y-115425290D02*
X80000000Y-105526256D01*
X91514657Y-119341098D02*
X83915808Y-119341098D01*
X96355755Y-114500000D02*
X91514657Y-119341098D01*
X100500000Y-114500000D02*
X96355755Y-114500000D01*
%TO.N,IN4B*%
X100040000Y-107460000D02*
X105180000Y-107460000D01*
X86212567Y-116000000D02*
X91500000Y-116000000D01*
X91500000Y-116000000D02*
X100040000Y-107460000D01*
X84201786Y-113989219D02*
X86212567Y-116000000D01*
X90000000Y-90500000D02*
X90000000Y-99366534D01*
X88040000Y-88540000D02*
X90000000Y-90500000D01*
X84880000Y-88540000D02*
X88040000Y-88540000D01*
X90000000Y-99366534D02*
X84201786Y-105164748D01*
X84201786Y-105164748D02*
X84201786Y-113989219D01*
%TO.N,IN1A*%
X77000000Y-100500000D02*
X81340000Y-96160000D01*
X81340000Y-96160000D02*
X84880000Y-96160000D01*
X77000000Y-117500000D02*
X77000000Y-100500000D01*
X82436000Y-122936000D02*
X77000000Y-117500000D01*
X94488000Y-122936000D02*
X82436000Y-122936000D01*
X96500000Y-120924000D02*
X94488000Y-122936000D01*
X96500000Y-118500000D02*
X96500000Y-120924000D01*
%TO.N,GND*%
X101500000Y-20000000D02*
X117000000Y-20000000D01*
X107340000Y-99840000D02*
X109000000Y-101500000D01*
X139080000Y-44960000D02*
X140540000Y-44960000D01*
X105180000Y-102380000D02*
X106880000Y-102380000D01*
X50848313Y-53651687D02*
X50848313Y-23151687D01*
X71250000Y-21750000D02*
X73000000Y-20000000D01*
X105180000Y-99840000D02*
X107340000Y-99840000D01*
X144500000Y-23792535D02*
X144500000Y-41000000D01*
X114490652Y-22509348D02*
X114490652Y-26210994D01*
X118000000Y-102380000D02*
X121120000Y-102380000D01*
X140707465Y-20000000D02*
X144500000Y-23792535D01*
X44950000Y-112950000D02*
X43000000Y-111000000D01*
X40000000Y-123500000D02*
X40000000Y-23500000D01*
X54000000Y-20000000D02*
X73000000Y-20000000D01*
X43000000Y-103000000D02*
X43000000Y-111000000D01*
X121120000Y-102380000D02*
X122500000Y-101000000D01*
X50848313Y-23151687D02*
X54000000Y-20000000D01*
X82500000Y-20000000D02*
X101500000Y-20000000D01*
X122500000Y-101000000D02*
X136000000Y-101000000D01*
X46500000Y-74500000D02*
X45000000Y-74500000D01*
X117000000Y-20000000D02*
X114490652Y-22509348D01*
X42800000Y-58310000D02*
X46190000Y-58310000D01*
X43000000Y-76500000D02*
X43000000Y-88500000D01*
X40000000Y-23500000D02*
X43500000Y-20000000D01*
X135750000Y-20000000D02*
X140707465Y-20000000D01*
X45000000Y-123500000D02*
X43000000Y-121500000D01*
X46250000Y-112950000D02*
X44950000Y-112950000D01*
X43000000Y-126500000D02*
X40000000Y-123500000D01*
X46500000Y-90500000D02*
X45000000Y-90500000D01*
X45750000Y-129250000D02*
X58500000Y-129250000D01*
X43000000Y-111000000D02*
X43000000Y-121500000D01*
X47500000Y-105040000D02*
X45040000Y-105040000D01*
X136000000Y-101000000D02*
X144500000Y-92500000D01*
X144500000Y-92500000D02*
X144500000Y-61500000D01*
X144500000Y-61500000D02*
X141040000Y-64960000D01*
X54000000Y-25500000D02*
X59500000Y-20000000D01*
X115460000Y-99840000D02*
X118000000Y-102380000D01*
X112800000Y-99840000D02*
X115460000Y-99840000D01*
X45000000Y-90500000D02*
X43000000Y-88500000D01*
X117000000Y-20000000D02*
X124000000Y-20000000D01*
X43000000Y-121500000D02*
X43000000Y-126500000D01*
X46190000Y-58310000D02*
X50848313Y-53651687D01*
X124000000Y-20000000D02*
X135750000Y-20000000D01*
X45040000Y-105040000D02*
X43000000Y-103000000D01*
X80000000Y-20000000D02*
X82500000Y-20000000D01*
X139490000Y-23740000D02*
X135750000Y-20000000D01*
X141040000Y-64960000D02*
X139080000Y-64960000D01*
X140540000Y-44960000D02*
X144500000Y-41000000D01*
X106880000Y-102380000D02*
X109000000Y-104500000D01*
X77250000Y-24250000D02*
X77250000Y-22750000D01*
X47555000Y-123500000D02*
X45000000Y-123500000D01*
X73000000Y-20000000D02*
X80000000Y-20000000D01*
X43500000Y-20000000D02*
X54000000Y-20000000D01*
X71250000Y-41750000D02*
X71250000Y-21750000D01*
X77250000Y-22750000D02*
X80000000Y-20000000D01*
X109000000Y-101500000D02*
X109000000Y-104500000D01*
X144500000Y-41000000D02*
X144500000Y-61500000D01*
X43000000Y-126500000D02*
X45750000Y-129250000D01*
X43000000Y-88500000D02*
X43000000Y-103000000D01*
X45000000Y-74500000D02*
X43000000Y-76500000D01*
X54000000Y-48500000D02*
X54000000Y-25500000D01*
X63810000Y-58310000D02*
X54000000Y-48500000D01*
X139490000Y-26000000D02*
X139490000Y-23740000D01*
X87750000Y-58250000D02*
X71250000Y-41750000D01*
X68200000Y-58310000D02*
X63810000Y-58310000D01*
X112800000Y-102380000D02*
X118000000Y-102380000D01*
%TO.N,XTAL1*%
X63960000Y-83460000D02*
X69960000Y-83460000D01*
X61000000Y-74500000D02*
X69960000Y-83460000D01*
X60550000Y-80050000D02*
X63960000Y-83460000D01*
X51500000Y-74500000D02*
X61000000Y-74500000D01*
X69960000Y-83460000D02*
X84880000Y-83460000D01*
X56000000Y-80050000D02*
X60550000Y-80050000D01*
%TO.N,XTAL2*%
X67125000Y-86000000D02*
X84880000Y-86000000D01*
X56000000Y-88500000D02*
X58000000Y-90500000D01*
X62625000Y-90500000D02*
X67125000Y-86000000D01*
X51500000Y-90500000D02*
X58000000Y-90500000D01*
X58000000Y-90500000D02*
X62625000Y-90500000D01*
X56000000Y-84930000D02*
X56000000Y-88500000D01*
%TO.N,9V*%
X47500000Y-99960000D02*
X50460000Y-99960000D01*
X53000000Y-118000000D02*
X50040000Y-120960000D01*
X53000000Y-102500000D02*
X53000000Y-111000000D01*
X51050000Y-112950000D02*
X53000000Y-111000000D01*
X53000000Y-111000000D02*
X53000000Y-118000000D01*
X50460000Y-99960000D02*
X53000000Y-102500000D01*
X49750000Y-112950000D02*
X51050000Y-112950000D01*
X50040000Y-120960000D02*
X47555000Y-120960000D01*
%TO.N,5V*%
X68380000Y-78380000D02*
X60500000Y-70500000D01*
X67500000Y-114000000D02*
X67500000Y-122750000D01*
X94714658Y-22785342D02*
X92500000Y-25000000D01*
X107290000Y-26133045D02*
X103942297Y-22785342D01*
X49000000Y-68500000D02*
X49000000Y-71000000D01*
X58500000Y-124250000D02*
X58500000Y-125750000D01*
X49000000Y-71000000D02*
X49000000Y-95500000D01*
X50989388Y-70500000D02*
X49000000Y-72489388D01*
X60500000Y-70500000D02*
X50989388Y-70500000D01*
X67500000Y-122750000D02*
X70250000Y-125500000D01*
X49000000Y-95500000D02*
X67500000Y-114000000D01*
X92500000Y-25000000D02*
X92500000Y-44268659D01*
X92500000Y-44268659D02*
X98000000Y-49768659D01*
X42800000Y-60850000D02*
X46350000Y-60850000D01*
X60750000Y-122000000D02*
X58500000Y-124250000D01*
X49000000Y-63500000D02*
X49000000Y-68500000D01*
X107290000Y-31000000D02*
X107290000Y-26133045D01*
X103942297Y-22785342D02*
X94714658Y-22785342D01*
X46350000Y-60850000D02*
X49000000Y-63500000D01*
%TO.N,Net-(J1-Pin_2)*%
X123840000Y-67710000D02*
X123840000Y-64960000D01*
X127010000Y-70880000D02*
X123840000Y-67710000D01*
X133080000Y-70880000D02*
X127010000Y-70880000D01*
%TO.N,Net-(J2-Pin_2)*%
X133080000Y-54460000D02*
X127090000Y-54460000D01*
X123840000Y-51210000D02*
X123840000Y-44960000D01*
X127090000Y-54460000D02*
X123840000Y-51210000D01*
%TO.N,LED2*%
X109960000Y-59540000D02*
X96200000Y-73300000D01*
X133080000Y-59540000D02*
X109960000Y-59540000D01*
X96200000Y-73300000D02*
X92500000Y-73300000D01*
%TO.N,Net-(J3-Pin_2)*%
X128090000Y-33960000D02*
X124250000Y-30120000D01*
X124250000Y-30120000D02*
X124250000Y-26000000D01*
X132870000Y-33960000D02*
X128090000Y-33960000D01*
%TO.N,Net-(J4-Pin_2)*%
X98750000Y-31000000D02*
X102210000Y-31000000D01*
X95500000Y-26130000D02*
X95500000Y-27750000D01*
X95500000Y-27750000D02*
X98750000Y-31000000D01*
%TO.N,LDR*%
X92500000Y-63140000D02*
X92500000Y-59000000D01*
X77250000Y-39490000D02*
X77250000Y-43750000D01*
X92500000Y-59000000D02*
X92500000Y-50750000D01*
X92500000Y-50750000D02*
X83710000Y-41960000D01*
X77250000Y-43750000D02*
X92500000Y-59000000D01*
X83710000Y-41960000D02*
X83710000Y-30870000D01*
%TO.N,OUPUTA*%
X126500000Y-108000000D02*
X128500000Y-106000000D01*
X116420000Y-104920000D02*
X119500000Y-108000000D01*
X112800000Y-104920000D02*
X116420000Y-104920000D01*
X119500000Y-108000000D02*
X126500000Y-108000000D01*
X128500000Y-106000000D02*
X128500000Y-103540000D01*
%TO.N,OUPUTA-*%
X112800000Y-97300000D02*
X119800000Y-97300000D01*
X128460000Y-98500000D02*
X128500000Y-98460000D01*
X119800000Y-97300000D02*
X121000000Y-98500000D01*
X121000000Y-98500000D02*
X128460000Y-98500000D01*
%TO.N,OUPUTB-*%
X98580000Y-104920000D02*
X105180000Y-104920000D01*
X91420000Y-112080000D02*
X98580000Y-104920000D01*
X89000000Y-112080000D02*
X91420000Y-112080000D01*
%TO.N,Net-(Q1-C)*%
X104385951Y-45906582D02*
X114490652Y-35801881D01*
X98593185Y-45906582D02*
X104385951Y-45906582D01*
X95500000Y-42813397D02*
X98593185Y-45906582D01*
X95500000Y-41370000D02*
X95500000Y-42813397D01*
X114490652Y-35801881D02*
X114490652Y-31290994D01*
%TO.N,Net-(Q1-B)*%
X105179531Y-41844575D02*
X110262169Y-36761937D01*
X110262169Y-30480813D02*
X111991988Y-28750994D01*
X110262169Y-36761937D02*
X110262169Y-30480813D01*
X101159904Y-41844575D02*
X105179531Y-41844575D01*
X111991988Y-28750994D02*
X114490652Y-28750994D01*
%TO.N,LAZER*%
X114614047Y-41844575D02*
X116399904Y-41844575D01*
X95030000Y-68220000D02*
X105000000Y-58250000D01*
X105000000Y-51458622D02*
X114614047Y-41844575D01*
X105000000Y-58250000D02*
X105000000Y-51458622D01*
X92500000Y-68220000D02*
X95030000Y-68220000D01*
%TO.N,SPEEDA*%
X112800000Y-110000000D02*
X112800000Y-114500000D01*
%TO.N,IN2A*%
X82719368Y-93620000D02*
X80000000Y-90900632D01*
X80000000Y-90900632D02*
X80000000Y-89000000D01*
X84880000Y-93620000D02*
X82719368Y-93620000D01*
%TO.N,TX*%
X78680000Y-65680000D02*
X84880000Y-65680000D01*
X71110000Y-45610000D02*
X75000000Y-49500000D01*
X75000000Y-62000000D02*
X78680000Y-65680000D01*
X68200000Y-45610000D02*
X71110000Y-45610000D01*
X75000000Y-49500000D02*
X75000000Y-62000000D01*
%TO.N,SPEEDB*%
X100293263Y-92220000D02*
X105180000Y-92220000D01*
X92500000Y-93620000D02*
X98893263Y-93620000D01*
X98893263Y-93620000D02*
X100293263Y-92220000D01*
%TO.N,RX*%
X68200000Y-48150000D02*
X70650000Y-48150000D01*
X73000000Y-63000000D02*
X78220000Y-68220000D01*
X73000000Y-50500000D02*
X73000000Y-63000000D01*
X70650000Y-48150000D02*
X73000000Y-50500000D01*
X78220000Y-68220000D02*
X84880000Y-68220000D01*
%TO.N,IN3B*%
X99340000Y-96160000D02*
X100740000Y-94760000D01*
X92500000Y-96160000D02*
X99340000Y-96160000D01*
X100740000Y-94760000D02*
X105180000Y-94760000D01*
%TO.N,IN1A*%
X115000000Y-117000000D02*
X117000000Y-117000000D01*
X117000000Y-117000000D02*
X119000000Y-115000000D01*
X119000000Y-115000000D02*
X119000000Y-111500000D01*
X114960000Y-107460000D02*
X112800000Y-107460000D01*
X119000000Y-111500000D02*
X114960000Y-107460000D01*
%TO.N,5V*%
X92500000Y-83460000D02*
X113792000Y-83460000D01*
X111252000Y-80920000D02*
X113792000Y-83460000D01*
X113792000Y-83460000D02*
X117348000Y-83460000D01*
X112800000Y-92220000D02*
X112800000Y-88008000D01*
X112800000Y-88008000D02*
X117348000Y-83460000D01*
X84880000Y-78380000D02*
X68380000Y-78380000D01*
X92500000Y-80920000D02*
X111252000Y-80920000D01*
%TO.N,GND*%
X92500000Y-78380000D02*
X91019476Y-78380000D01*
X89706379Y-77066903D02*
X89706379Y-60206379D01*
X91019476Y-78380000D02*
X89706379Y-77066903D01*
X89706379Y-60206379D02*
X87750000Y-58250000D01*
%TO.N,5V*%
X136500000Y-93980000D02*
X136500000Y-26500000D01*
X122500000Y-22500000D02*
X119000000Y-26000000D01*
X136500000Y-26500000D02*
X132500000Y-22500000D01*
X132500000Y-22500000D02*
X122500000Y-22500000D01*
X119000000Y-34603616D02*
X103834957Y-49768659D01*
X103834957Y-49768659D02*
X94732851Y-49768659D01*
X119000000Y-26000000D02*
X119000000Y-34603616D01*
X94732851Y-49768659D02*
X88790000Y-43825808D01*
X88790000Y-43825808D02*
X88790000Y-30870000D01*
X97536000Y-125476000D02*
X97512000Y-125500000D01*
X64000000Y-122000000D02*
X55000000Y-122000000D01*
X136652000Y-108204000D02*
X136652000Y-111252000D01*
X136652000Y-111252000D02*
X122428000Y-125476000D01*
X97512000Y-125500000D02*
X67500000Y-125500000D01*
X67500000Y-125500000D02*
X64000000Y-122000000D01*
X55000000Y-122000000D02*
X50960000Y-126040000D01*
X50960000Y-126040000D02*
X47555000Y-126040000D01*
X117348000Y-83460000D02*
X134616000Y-83460000D01*
X134616000Y-83460000D02*
X136500000Y-85344000D01*
X105180000Y-110000000D02*
X105180000Y-120372000D01*
X122428000Y-125476000D02*
X100076000Y-125476000D01*
X100076000Y-125476000D02*
X97536000Y-125476000D01*
X105180000Y-120372000D02*
X100076000Y-125476000D01*
%TO.N,GND*%
X87750000Y-79890405D02*
X87750000Y-58250000D01*
X84880000Y-80920000D02*
X86720405Y-80920000D01*
X86720405Y-80920000D02*
X87750000Y-79890405D01*
%TD*%
M02*
