M48
; DRILL file {KiCad 8.0.7} date 2025-11-24T17:01:54-0300
; FORMAT={-:-/ absolute / metric / decimal}
; #@! TF.CreationDate,2025-11-24T17:01:54-03:00
; #@! TF.GenerationSoftware,Kicad,Pcbnew,8.0.7
; #@! TF.FileFunction,Plated,1,2,PTH
FMAT,2
METRIC
; #@! TA.AperFunction,Plated,PTH,ComponentDrill
T1C0.762
; #@! TA.AperFunction,Plated,PTH,ViaDrill
T2C0.800
; #@! TA.AperFunction,Plated,PTH,ComponentDrill
T3C0.800
; #@! TA.AperFunction,Plated,PTH,ComponentDrill
T4C1.100
; #@! TA.AperFunction,Plated,PTH,ComponentDrill
T5C1.520
%
G90
G05
T1
X42.8Y-25.29
X42.8Y-27.83
X42.8Y-30.37
X42.8Y-32.91
X42.8Y-35.45
X42.8Y-37.99
X42.8Y-40.53
X42.8Y-43.07
X42.8Y-45.61
X42.8Y-48.15
X42.8Y-50.69
X42.8Y-53.23
X42.8Y-55.77
X42.8Y-58.31
X42.8Y-60.85
X68.2Y-25.29
X68.2Y-27.83
X68.2Y-30.37
X68.2Y-32.91
X68.2Y-35.45
X68.2Y-37.99
X68.2Y-40.53
X68.2Y-43.07
X68.2Y-45.61
X68.2Y-48.15
X68.2Y-50.69
X68.2Y-53.23
X68.2Y-55.77
X68.2Y-58.31
X68.2Y-60.85
T2
X80.0Y-89.0
X96.5Y-118.5
X97.0Y-88.099
X100.5Y-114.5
X112.8Y-114.5
X115.0Y-117.0
X136.5Y-93.98
X136.652Y-108.204
T3
X46.25Y-112.95
X46.5Y-74.5
X46.5Y-90.5
X49.75Y-112.95
X51.5Y-74.5
X51.5Y-90.5
X56.0Y-80.05
X56.0Y-84.93
X58.5Y-125.75
X58.5Y-129.25
X77.25Y-24.25
X77.25Y-39.49
X84.88Y-63.14
X84.88Y-65.68
X84.88Y-68.22
X84.88Y-70.76
X84.88Y-73.3
X84.88Y-75.84
X84.88Y-78.38
X84.88Y-80.92
X84.88Y-83.46
X84.88Y-86.0
X84.88Y-88.54
X84.88Y-91.08
X84.88Y-93.62
X84.88Y-96.16
X92.5Y-63.14
X92.5Y-65.68
X92.5Y-68.22
X92.5Y-70.76
X92.5Y-73.3
X92.5Y-75.84
X92.5Y-78.38
X92.5Y-80.92
X92.5Y-83.46
X92.5Y-86.0
X92.5Y-88.54
X92.5Y-91.08
X92.5Y-93.62
X92.5Y-96.16
X95.5Y-26.13
X95.5Y-41.37
X101.16Y-41.845
X105.18Y-92.22
X105.18Y-94.76
X105.18Y-97.3
X105.18Y-99.84
X105.18Y-102.38
X105.18Y-104.92
X105.18Y-107.46
X105.18Y-110.0
X112.8Y-92.22
X112.8Y-94.76
X112.8Y-97.3
X112.8Y-99.84
X112.8Y-102.38
X112.8Y-104.92
X112.8Y-107.46
X112.8Y-110.0
X114.491Y-26.211
X114.491Y-28.751
X114.491Y-31.291
X116.4Y-41.845
X123.84Y-44.96
X123.84Y-64.96
X124.25Y-26.0
X139.08Y-44.96
X139.08Y-64.96
X139.49Y-26.0
T4
X47.555Y-120.96
X47.555Y-123.5
X47.555Y-126.04
T5
X47.5Y-99.96
X47.5Y-105.04
X83.71Y-30.87
X88.79Y-30.87
X89.0Y-107.0
X89.0Y-112.08
X102.21Y-31.0
X107.29Y-31.0
X128.5Y-98.46
X128.5Y-103.54
X132.87Y-33.96
X132.87Y-39.04
X133.08Y-54.46
X133.08Y-59.54
X133.08Y-70.88
X133.08Y-75.96
M30
